<svg id="visual" viewBox="0 0 1920 1080" width="1920" height="1080" xmlns="http://www.w3.org/2000/svg" xmlns:xlink="http://www.w3.org/1999/xlink" version="1.1"><path d="M0 23L16 24.7C32 26.3 64 29.7 96 33.2C128 36.7 160 40.3 192 40.3C224 40.3 256 36.7 288 34.8C320 33 352 33 384 36.7C416 40.3 448 47.7 480 51.3C512 55 544 55 576 49.7C608 44.3 640 33.7 672 28.3C704 23 736 23 768 26.5C800 30 832 37 864 42.3C896 47.7 928 51.3 960 53.2C992 55 1024 55 1056 53.2C1088 51.3 1120 47.7 1152 45.8C1184 44 1216 44 1248 42.2C1280 40.3 1312 36.7 1344 34.8C1376 33 1408 33 1440 36.7C1472 40.3 1504 47.7 1536 47.7C1568 47.7 1600 40.3 1632 35C1664 29.7 1696 26.3 1728 24.7C1760 23 1792 23 1824 24.7C1856 26.3 1888 29.7 1904 31.3L1920 33L1920 0L1904 0C1888 0 1856 0 1824 0C1792 0 1760 0 1728 0C1696 0 1664 0 1632 0C1600 0 1568 0 1536 0C1504 0 1472 0 1440 0C1408 0 1376 0 1344 0C1312 0 1280 0 1248 0C1216 0 1184 0 1152 0C1120 0 1088 0 1056 0C1024 0 992 0 960 0C928 0 896 0 864 0C832 0 800 0 768 0C736 0 704 0 672 0C640 0 608 0 576 0C544 0 512 0 480 0C448 0 416 0 384 0C352 0 320 0 288 0C256 0 224 0 192 0C160 0 128 0 96 0C64 0 32 0 16 0L0 0Z" fill="#190f26"></path><path d="M0 217L16 220.7C32 224.3 64 231.7 96 242.5C128 253.3 160 267.7 192 265.8C224 264 256 246 288 247.8C320 249.7 352 271.3 384 271.3C416 271.3 448 249.7 480 256.8C512 264 544 300 576 300C608 300 640 264 672 233.3C704 202.7 736 177.3 768 179.2C800 181 832 210 864 240.7C896 271.3 928 303.7 960 309C992 314.3 1024 292.7 1056 271C1088 249.3 1120 227.7 1152 218.7C1184 209.7 1216 213.3 1248 220.5C1280 227.7 1312 238.3 1344 252.7C1376 267 1408 285 1440 283.3C1472 281.7 1504 260.3 1536 246C1568 231.7 1600 224.3 1632 220.7C1664 217 1696 217 1728 227.8C1760 238.7 1792 260.3 1824 258.5C1856 256.7 1888 231.3 1904 218.7L1920 206L1920 31L1904 29.3C1888 27.7 1856 24.3 1824 22.7C1792 21 1760 21 1728 22.7C1696 24.3 1664 27.7 1632 33C1600 38.3 1568 45.7 1536 45.7C1504 45.7 1472 38.3 1440 34.7C1408 31 1376 31 1344 32.8C1312 34.7 1280 38.3 1248 40.2C1216 42 1184 42 1152 43.8C1120 45.7 1088 49.3 1056 51.2C1024 53 992 53 960 51.2C928 49.3 896 45.7 864 40.3C832 35 800 28 768 24.5C736 21 704 21 672 26.3C640 31.7 608 42.3 576 47.7C544 53 512 53 480 49.3C448 45.7 416 38.3 384 34.7C352 31 320 31 288 32.8C256 34.7 224 38.3 192 38.3C160 38.3 128 34.7 96 31.2C64 27.7 32 24.3 16 22.7L0 21Z" fill="#1b112a"></path><path d="M0 249L16 256.3C32 263.7 64 278.3 96 296.3C128 314.3 160 335.7 192 337.3C224 339 256 321 288 321C320 321 352 339 384 333.7C416 328.3 448 299.7 480 307C512 314.3 544 357.7 576 363C608 368.3 640 335.7 672 306.8C704 278 736 253 768 251.3C800 249.7 832 271.3 864 298.3C896 325.3 928 357.7 960 364.8C992 372 1024 354 1056 328.8C1088 303.7 1120 271.3 1152 264.2C1184 257 1216 275 1248 287.5C1280 300 1312 307 1344 316C1376 325 1408 336 1440 334.2C1472 332.3 1504 317.7 1536 301.3C1568 285 1600 267 1632 263.5C1664 260 1696 271 1728 285.5C1760 300 1792 318 1824 312.5C1856 307 1888 278 1904 263.5L1920 249L1920 204L1904 216.7C1888 229.3 1856 254.7 1824 256.5C1792 258.3 1760 236.7 1728 225.8C1696 215 1664 215 1632 218.7C1600 222.3 1568 229.7 1536 244C1504 258.3 1472 279.7 1440 281.3C1408 283 1376 265 1344 250.7C1312 236.3 1280 225.7 1248 218.5C1216 211.3 1184 207.7 1152 216.7C1120 225.7 1088 247.3 1056 269C1024 290.7 992 312.3 960 307C928 301.7 896 269.3 864 238.7C832 208 800 179 768 177.2C736 175.3 704 200.7 672 231.3C640 262 608 298 576 298C544 298 512 262 480 254.8C448 247.7 416 269.3 384 269.3C352 269.3 320 247.7 288 245.8C256 244 224 262 192 263.8C160 265.7 128 251.3 96 240.5C64 229.7 32 222.3 16 218.7L0 215Z" fill="#1e132f"></path><path d="M0 282L16 292.8C32 303.7 64 325.3 96 341.5C128 357.7 160 368.3 192 368.3C224 368.3 256 357.7 288 361.3C320 365 352 383 384 374C416 365 448 329 480 332.5C512 336 544 379 576 384.3C608 389.7 640 357.3 672 330.3C704 303.3 736 281.7 768 285.3C800 289 832 318 864 346.8C896 375.7 928 404.3 960 406C992 407.7 1024 382.3 1056 355.3C1088 328.3 1120 299.7 1152 298C1184 296.3 1216 321.7 1248 337.8C1280 354 1312 361 1344 366.3C1376 371.7 1408 375.3 1440 368.2C1472 361 1504 343 1536 328.7C1568 314.3 1600 303.7 1632 305.5C1664 307.3 1696 321.7 1728 332.3C1760 343 1792 350 1824 342.8C1856 335.7 1888 314.3 1904 303.7L1920 293L1920 247L1904 261.5C1888 276 1856 305 1824 310.5C1792 316 1760 298 1728 283.5C1696 269 1664 258 1632 261.5C1600 265 1568 283 1536 299.3C1504 315.7 1472 330.3 1440 332.2C1408 334 1376 323 1344 314C1312 305 1280 298 1248 285.5C1216 273 1184 255 1152 262.2C1120 269.3 1088 301.7 1056 326.8C1024 352 992 370 960 362.8C928 355.7 896 323.3 864 296.3C832 269.3 800 247.7 768 249.3C736 251 704 276 672 304.8C640 333.7 608 366.3 576 361C544 355.7 512 312.3 480 305C448 297.7 416 326.3 384 331.7C352 337 320 319 288 319C256 319 224 337 192 335.3C160 333.7 128 312.3 96 294.3C64 276.3 32 261.7 16 254.3L0 247Z" fill="#211533"></path><path d="M0 325L16 337.7C32 350.3 64 375.7 96 390C128 404.3 160 407.7 192 409.3C224 411 256 411 288 414.7C320 418.3 352 425.7 384 415C416 404.3 448 375.7 480 384.7C512 393.7 544 440.3 576 443.8C608 447.3 640 407.7 672 384.3C704 361 736 354 768 363C800 372 832 397 864 424C896 451 928 480 960 474.7C992 469.3 1024 429.7 1056 400.8C1088 372 1120 354 1152 357.5C1184 361 1216 386 1248 404C1280 422 1312 433 1344 434.8C1376 436.7 1408 429.3 1440 420.3C1472 411.3 1504 400.7 1536 388.2C1568 375.7 1600 361.3 1632 363.2C1664 365 1696 383 1728 395.5C1760 408 1792 415 1824 404.2C1856 393.3 1888 364.7 1904 350.3L1920 336L1920 291L1904 301.7C1888 312.3 1856 333.7 1824 340.8C1792 348 1760 341 1728 330.3C1696 319.7 1664 305.3 1632 303.5C1600 301.7 1568 312.3 1536 326.7C1504 341 1472 359 1440 366.2C1408 373.3 1376 369.7 1344 364.3C1312 359 1280 352 1248 335.8C1216 319.7 1184 294.3 1152 296C1120 297.7 1088 326.3 1056 353.3C1024 380.3 992 405.7 960 404C928 402.3 896 373.7 864 344.8C832 316 800 287 768 283.3C736 279.7 704 301.3 672 328.3C640 355.3 608 387.7 576 382.3C544 377 512 334 480 330.5C448 327 416 363 384 372C352 381 320 363 288 359.3C256 355.7 224 366.3 192 366.3C160 366.3 128 355.7 96 339.5C64 323.3 32 301.7 16 290.8L0 280Z" fill="#241638"></path><path d="M0 433L16 443.8C32 454.7 64 476.3 96 499.7C128 523 160 548 192 544.3C224 540.7 256 508.3 288 501.2C320 494 352 512 384 506.7C416 501.3 448 472.7 480 479.8C512 487 544 530 576 546.2C608 562.3 640 551.7 672 541C704 530.3 736 519.7 768 523.3C800 527 832 545 864 557.5C896 570 928 577 960 566.2C992 555.3 1024 526.7 1056 510.5C1088 494.3 1120 490.7 1152 503.2C1184 515.7 1216 544.3 1248 549.7C1280 555 1312 537 1344 540.7C1376 544.3 1408 569.7 1440 573.3C1472 577 1504 559 1536 544.7C1568 530.3 1600 519.7 1632 508.8C1664 498 1696 487 1728 506.7C1760 526.3 1792 576.7 1824 569.5C1856 562.3 1888 497.7 1904 465.3L1920 433L1920 334L1904 348.3C1888 362.7 1856 391.3 1824 402.2C1792 413 1760 406 1728 393.5C1696 381 1664 363 1632 361.2C1600 359.3 1568 373.7 1536 386.2C1504 398.7 1472 409.3 1440 418.3C1408 427.3 1376 434.7 1344 432.8C1312 431 1280 420 1248 402C1216 384 1184 359 1152 355.5C1120 352 1088 370 1056 398.8C1024 427.7 992 467.3 960 472.7C928 478 896 449 864 422C832 395 800 370 768 361C736 352 704 359 672 382.3C640 405.7 608 445.3 576 441.8C544 438.3 512 391.7 480 382.7C448 373.7 416 402.3 384 413C352 423.7 320 416.3 288 412.7C256 409 224 409 192 407.3C160 405.7 128 402.3 96 388C64 373.7 32 348.3 16 335.7L0 323Z" fill="#27183d"></path><path d="M0 671L16 678.2C32 685.3 64 699.7 96 717.7C128 735.7 160 757.3 192 753.7C224 750 256 721 288 703C320 685 352 678 384 681.7C416 685.3 448 699.7 480 708.7C512 717.7 544 721.3 576 723.2C608 725 640 725 672 725C704 725 736 725 768 725C800 725 832 725 864 725C896 725 928 725 960 717.7C992 710.3 1024 695.7 1056 710C1088 724.3 1120 767.7 1152 778.5C1184 789.3 1216 767.7 1248 764C1280 760.3 1312 774.7 1344 780.2C1376 785.7 1408 782.3 1440 769.8C1472 757.3 1504 735.7 1536 733.8C1568 732 1600 750 1632 748.2C1664 746.3 1696 724.7 1728 728.2C1760 731.7 1792 760.3 1824 760.3C1856 760.3 1888 731.7 1904 717.3L1920 703L1920 431L1904 463.3C1888 495.7 1856 560.3 1824 567.5C1792 574.7 1760 524.3 1728 504.7C1696 485 1664 496 1632 506.8C1600 517.7 1568 528.3 1536 542.7C1504 557 1472 575 1440 571.3C1408 567.7 1376 542.3 1344 538.7C1312 535 1280 553 1248 547.7C1216 542.3 1184 513.7 1152 501.2C1120 488.7 1088 492.3 1056 508.5C1024 524.7 992 553.3 960 564.2C928 575 896 568 864 555.5C832 543 800 525 768 521.3C736 517.7 704 528.3 672 539C640 549.7 608 560.3 576 544.2C544 528 512 485 480 477.8C448 470.7 416 499.3 384 504.7C352 510 320 492 288 499.2C256 506.3 224 538.7 192 542.3C160 546 128 521 96 497.7C64 474.3 32 452.7 16 441.8L0 431Z" fill="#291a41"></path><path d="M0 725L16 739.3C32 753.7 64 782.3 96 802C128 821.7 160 832.3 192 827C224 821.7 256 800.3 288 787.8C320 775.3 352 771.7 384 775.2C416 778.7 448 789.3 480 796.5C512 803.7 544 807.3 576 805.5C608 803.7 640 796.3 672 791C704 785.7 736 782.3 768 778.8C800 775.3 832 771.7 864 777C896 782.3 928 796.7 960 793C992 789.3 1024 767.7 1056 778.5C1088 789.3 1120 832.7 1152 839.8C1184 847 1216 818 1248 818C1280 818 1312 847 1344 854.3C1376 861.7 1408 847.3 1440 834.7C1472 822 1504 811 1536 809.2C1568 807.3 1600 814.7 1632 807.5C1664 800.3 1696 778.7 1728 785.8C1760 793 1792 829 1824 830.8C1856 832.7 1888 800.3 1904 784.2L1920 768L1920 701L1904 715.3C1888 729.7 1856 758.3 1824 758.3C1792 758.3 1760 729.7 1728 726.2C1696 722.7 1664 744.3 1632 746.2C1600 748 1568 730 1536 731.8C1504 733.7 1472 755.3 1440 767.8C1408 780.3 1376 783.7 1344 778.2C1312 772.7 1280 758.3 1248 762C1216 765.7 1184 787.3 1152 776.5C1120 765.7 1088 722.3 1056 708C1024 693.7 992 708.3 960 715.7C928 723 896 723 864 723C832 723 800 723 768 723C736 723 704 723 672 723C640 723 608 723 576 721.2C544 719.3 512 715.7 480 706.7C448 697.7 416 683.3 384 679.7C352 676 320 683 288 701C256 719 224 748 192 751.7C160 755.3 128 733.7 96 715.7C64 697.7 32 683.3 16 676.2L0 669Z" fill="#2c1b46"></path><path d="M0 789L16 799.8C32 810.7 64 832.3 96 850.3C128 868.3 160 882.7 192 875.5C224 868.3 256 839.7 288 829C320 818.3 352 825.7 384 834.7C416 843.7 448 854.3 480 861.5C512 868.7 544 872.3 576 870.5C608 868.7 640 861.3 672 852.3C704 843.3 736 832.7 768 829.2C800 825.7 832 829.3 864 832.8C896 836.3 928 839.7 960 836C992 832.3 1024 821.7 1056 834.3C1088 847 1120 883 1152 888.3C1184 893.7 1216 868.3 1248 866.5C1280 864.7 1312 886.3 1344 890C1376 893.7 1408 879.3 1440 866.8C1472 854.3 1504 843.7 1536 841.8C1568 840 1600 847 1632 841.5C1664 836 1696 818 1728 827C1760 836 1792 872 1824 873.8C1856 875.7 1888 843.3 1904 827.2L1920 811L1920 766L1904 782.2C1888 798.3 1856 830.7 1824 828.8C1792 827 1760 791 1728 783.8C1696 776.7 1664 798.3 1632 805.5C1600 812.7 1568 805.3 1536 807.2C1504 809 1472 820 1440 832.7C1408 845.3 1376 859.7 1344 852.3C1312 845 1280 816 1248 816C1216 816 1184 845 1152 837.8C1120 830.7 1088 787.3 1056 776.5C1024 765.7 992 787.3 960 791C928 794.7 896 780.3 864 775C832 769.7 800 773.3 768 776.8C736 780.3 704 783.7 672 789C640 794.3 608 801.7 576 803.5C544 805.3 512 801.7 480 794.5C448 787.3 416 776.7 384 773.2C352 769.7 320 773.3 288 785.8C256 798.3 224 819.7 192 825C160 830.3 128 819.7 96 800C64 780.3 32 751.7 16 737.3L0 723Z" fill="#301d4b"></path><path d="M0 908L16 922.5C32 937 64 966 96 978.7C128 991.3 160 987.7 192 973.2C224 958.7 256 933.3 288 927.8C320 922.3 352 936.7 384 947.5C416 958.3 448 965.7 480 964C512 962.3 544 951.7 576 949.8C608 948 640 955 672 955C704 955 736 948 768 944.5C800 941 832 941 864 946.3C896 951.7 928 962.3 960 964C992 965.7 1024 958.3 1056 962C1088 965.7 1120 980.3 1152 984C1184 987.7 1216 980.3 1248 982C1280 983.7 1312 994.3 1344 996.2C1376 998 1408 991 1440 985.7C1472 980.3 1504 976.7 1536 969.5C1568 962.3 1600 951.7 1632 940.8C1664 930 1696 919 1728 926.2C1760 933.3 1792 958.7 1824 964.2C1856 969.7 1888 955.3 1904 948.2L1920 941L1920 809L1904 825.2C1888 841.3 1856 873.7 1824 871.8C1792 870 1760 834 1728 825C1696 816 1664 834 1632 839.5C1600 845 1568 838 1536 839.8C1504 841.7 1472 852.3 1440 864.8C1408 877.3 1376 891.7 1344 888C1312 884.3 1280 862.7 1248 864.5C1216 866.3 1184 891.7 1152 886.3C1120 881 1088 845 1056 832.3C1024 819.7 992 830.3 960 834C928 837.7 896 834.3 864 830.8C832 827.3 800 823.7 768 827.2C736 830.7 704 841.3 672 850.3C640 859.3 608 866.7 576 868.5C544 870.3 512 866.7 480 859.5C448 852.3 416 841.7 384 832.7C352 823.7 320 816.3 288 827C256 837.7 224 866.3 192 873.5C160 880.7 128 866.3 96 848.3C64 830.3 32 808.7 16 797.8L0 787Z" fill="#331f4f"></path><path d="M0 962L16 974.7C32 987.3 64 1012.7 96 1023.5C128 1034.3 160 1030.7 192 1019.8C224 1009 256 991 288 985.7C320 980.3 352 987.7 384 998.5C416 1009.3 448 1023.7 480 1023.7C512 1023.7 544 1009.3 576 1005.7C608 1002 640 1009 672 1010.7C704 1012.3 736 1008.7 768 1005.2C800 1001.7 832 998.3 864 1003.8C896 1009.3 928 1023.7 960 1027.2C992 1030.7 1024 1023.3 1056 1021.5C1088 1019.7 1120 1023.3 1152 1027C1184 1030.7 1216 1034.3 1248 1036.2C1280 1038 1312 1038 1344 1034.3C1376 1030.7 1408 1023.3 1440 1019.7C1472 1016 1504 1016 1536 1012.5C1568 1009 1600 1002 1632 994.8C1664 987.7 1696 980.3 1728 983.8C1760 987.3 1792 1001.7 1824 1007C1856 1012.3 1888 1008.7 1904 1006.8L1920 1005L1920 939L1904 946.2C1888 953.3 1856 967.7 1824 962.2C1792 956.7 1760 931.3 1728 924.2C1696 917 1664 928 1632 938.8C1600 949.7 1568 960.3 1536 967.5C1504 974.7 1472 978.3 1440 983.7C1408 989 1376 996 1344 994.2C1312 992.3 1280 981.7 1248 980C1216 978.3 1184 985.7 1152 982C1120 978.3 1088 963.7 1056 960C1024 956.3 992 963.7 960 962C928 960.3 896 949.7 864 944.3C832 939 800 939 768 942.5C736 946 704 953 672 953C640 953 608 946 576 947.8C544 949.7 512 960.3 480 962C448 963.7 416 956.3 384 945.5C352 934.7 320 920.3 288 925.8C256 931.3 224 956.7 192 971.2C160 985.7 128 989.3 96 976.7C64 964 32 935 16 920.5L0 906Z" fill="#362054"></path><path d="M0 1081L16 1081C32 1081 64 1081 96 1081C128 1081 160 1081 192 1081C224 1081 256 1081 288 1081C320 1081 352 1081 384 1081C416 1081 448 1081 480 1081C512 1081 544 1081 576 1081C608 1081 640 1081 672 1081C704 1081 736 1081 768 1081C800 1081 832 1081 864 1081C896 1081 928 1081 960 1081C992 1081 1024 1081 1056 1081C1088 1081 1120 1081 1152 1081C1184 1081 1216 1081 1248 1081C1280 1081 1312 1081 1344 1081C1376 1081 1408 1081 1440 1081C1472 1081 1504 1081 1536 1081C1568 1081 1600 1081 1632 1081C1664 1081 1696 1081 1728 1081C1760 1081 1792 1081 1824 1081C1856 1081 1888 1081 1904 1081L1920 1081L1920 1003L1904 1004.8C1888 1006.7 1856 1010.3 1824 1005C1792 999.7 1760 985.3 1728 981.8C1696 978.3 1664 985.7 1632 992.8C1600 1000 1568 1007 1536 1010.5C1504 1014 1472 1014 1440 1017.7C1408 1021.3 1376 1028.7 1344 1032.3C1312 1036 1280 1036 1248 1034.2C1216 1032.3 1184 1028.7 1152 1025C1120 1021.3 1088 1017.7 1056 1019.5C1024 1021.3 992 1028.7 960 1025.2C928 1021.7 896 1007.3 864 1001.8C832 996.3 800 999.7 768 1003.2C736 1006.7 704 1010.3 672 1008.7C640 1007 608 1000 576 1003.7C544 1007.3 512 1021.7 480 1021.7C448 1021.7 416 1007.3 384 996.5C352 985.7 320 978.3 288 983.7C256 989 224 1007 192 1017.8C160 1028.7 128 1032.3 96 1021.5C64 1010.7 32 985.3 16 972.7L0 960Z" fill="#392259"></path></svg>