<svg id="visual" viewBox="0 0 1920 1080" width="1920" height="1080" xmlns="http://www.w3.org/2000/svg" xmlns:xlink="http://www.w3.org/1999/xlink" version="1.1"><rect x="0" y="0" width="1920" height="1080" fill="#001220"></rect><path d="M0 679L45.7 692C91.3 705 182.7 731 274.2 723.7C365.7 716.3 457.3 675.7 548.8 659.2C640.3 642.7 731.7 650.3 823 661.2C914.3 672 1005.7 686 1097 687.2C1188.3 688.3 1279.7 676.7 1371.2 669.8C1462.7 663 1554.3 661 1645.8 683.8C1737.3 706.7 1828.7 754.3 1874.3 778.2L1920 802L1920 1081L1874.3 1081C1828.7 1081 1737.3 1081 1645.8 1081C1554.3 1081 1462.7 1081 1371.2 1081C1279.7 1081 1188.3 1081 1097 1081C1005.7 1081 914.3 1081 823 1081C731.7 1081 640.3 1081 548.8 1081C457.3 1081 365.7 1081 274.2 1081C182.7 1081 91.3 1081 45.7 1081L0 1081Z" fill="#fa7268"></path><path d="M0 794L45.7 782C91.3 770 182.7 746 274.2 748.2C365.7 750.3 457.3 778.7 548.8 787C640.3 795.3 731.7 783.7 823 787.3C914.3 791 1005.7 810 1097 825C1188.3 840 1279.7 851 1371.2 854.8C1462.7 858.7 1554.3 855.3 1645.8 840.8C1737.3 826.3 1828.7 800.7 1874.3 787.8L1920 775L1920 1081L1874.3 1081C1828.7 1081 1737.3 1081 1645.8 1081C1554.3 1081 1462.7 1081 1371.2 1081C1279.7 1081 1188.3 1081 1097 1081C1005.7 1081 914.3 1081 823 1081C731.7 1081 640.3 1081 548.8 1081C457.3 1081 365.7 1081 274.2 1081C182.7 1081 91.3 1081 45.7 1081L0 1081Z" fill="#ef5f67"></path><path d="M0 827L45.7 828.2C91.3 829.3 182.7 831.7 274.2 843.5C365.7 855.3 457.3 876.7 548.8 891C640.3 905.3 731.7 912.7 823 904.5C914.3 896.3 1005.7 872.7 1097 869.8C1188.3 867 1279.7 885 1371.2 880.8C1462.7 876.7 1554.3 850.3 1645.8 833C1737.3 815.7 1828.7 807.3 1874.3 803.2L1920 799L1920 1081L1874.3 1081C1828.7 1081 1737.3 1081 1645.8 1081C1554.3 1081 1462.7 1081 1371.2 1081C1279.7 1081 1188.3 1081 1097 1081C1005.7 1081 914.3 1081 823 1081C731.7 1081 640.3 1081 548.8 1081C457.3 1081 365.7 1081 274.2 1081C182.7 1081 91.3 1081 45.7 1081L0 1081Z" fill="#e34c67"></path><path d="M0 907L45.7 909.7C91.3 912.3 182.7 917.7 274.2 924.7C365.7 931.7 457.3 940.3 548.8 933.8C640.3 927.3 731.7 905.7 823 898.3C914.3 891 1005.7 898 1097 896C1188.3 894 1279.7 883 1371.2 891C1462.7 899 1554.3 926 1645.8 938.5C1737.3 951 1828.7 949 1874.3 948L1920 947L1920 1081L1874.3 1081C1828.7 1081 1737.3 1081 1645.8 1081C1554.3 1081 1462.7 1081 1371.2 1081C1279.7 1081 1188.3 1081 1097 1081C1005.7 1081 914.3 1081 823 1081C731.7 1081 640.3 1081 548.8 1081C457.3 1081 365.7 1081 274.2 1081C182.7 1081 91.3 1081 45.7 1081L0 1081Z" fill="#d53867"></path><path d="M0 976L45.7 975.5C91.3 975 182.7 974 274.2 982.3C365.7 990.7 457.3 1008.3 548.8 1010.8C640.3 1013.3 731.7 1000.7 823 990.5C914.3 980.3 1005.7 972.7 1097 969.8C1188.3 967 1279.7 969 1371.2 970.7C1462.7 972.3 1554.3 973.7 1645.8 969.7C1737.3 965.7 1828.7 956.3 1874.3 951.7L1920 947L1920 1081L1874.3 1081C1828.7 1081 1737.3 1081 1645.8 1081C1554.3 1081 1462.7 1081 1371.2 1081C1279.7 1081 1188.3 1081 1097 1081C1005.7 1081 914.3 1081 823 1081C731.7 1081 640.3 1081 548.8 1081C457.3 1081 365.7 1081 274.2 1081C182.7 1081 91.3 1081 45.7 1081L0 1081Z" fill="#c62368"></path></svg>