<svg id="visual" viewBox="0 0 1920 200" width="1920" height="200" xmlns="http://www.w3.org/2000/svg" xmlns:xlink="http://www.w3.org/1999/xlink" version="1.1"><rect x="0" y="0" width="1920" height="200" fill="#013243"></rect><path d="M0 71L13.8 66.8C27.7 62.7 55.3 54.3 83.2 55.2C111 56 139 66 166.8 62.3C194.7 58.7 222.3 41.3 250.2 32.2C278 23 306 22 333.8 29.7C361.7 37.3 389.3 53.7 417.2 62.8C445 72 473 74 500.8 76C528.7 78 556.3 80 584.2 78.3C612 76.7 640 71.3 667.8 62.5C695.7 53.7 723.3 41.3 751.2 44.8C779 48.3 807 67.7 834.8 73.7C862.7 79.7 890.3 72.3 918.2 65.2C946 58 974 51 1001.8 52.8C1029.7 54.7 1057.3 65.3 1085.2 66.2C1113 67 1141 58 1168.8 49C1196.7 40 1224.3 31 1252.2 29C1280 27 1308 32 1335.8 39.7C1363.7 47.3 1391.3 57.7 1419.2 57.2C1447 56.7 1475 45.3 1502.8 44.5C1530.7 43.7 1558.3 53.3 1586.2 59.8C1614 66.3 1642 69.7 1669.8 69.8C1697.7 70 1725.3 67 1753.2 66.3C1781 65.7 1809 67.3 1836.8 63C1864.7 58.7 1892.3 48.3 1906.2 43.2L1920 38L1920 201L1906.2 201C1892.3 201 1864.7 201 1836.8 201C1809 201 1781 201 1753.2 201C1725.3 201 1697.7 201 1669.8 201C1642 201 1614 201 1586.2 201C1558.3 201 1530.7 201 1502.8 201C1475 201 1447 201 1419.2 201C1391.3 201 1363.7 201 1335.8 201C1308 201 1280 201 1252.2 201C1224.3 201 1196.7 201 1168.8 201C1141 201 1113 201 1085.2 201C1057.3 201 1029.7 201 1001.8 201C974 201 946 201 918.2 201C890.3 201 862.7 201 834.8 201C807 201 779 201 751.2 201C723.3 201 695.7 201 667.8 201C640 201 612 201 584.2 201C556.3 201 528.7 201 500.8 201C473 201 445 201 417.2 201C389.3 201 361.7 201 333.8 201C306 201 278 201 250.2 201C222.3 201 194.7 201 166.8 201C139 201 111 201 83.2 201C55.3 201 27.7 201 13.8 201L0 201Z" fill="#044f69"></path><path d="M0 130L13.8 128.7C27.7 127.3 55.3 124.7 83.2 120.3C111 116 139 110 166.8 106.2C194.7 102.3 222.3 100.7 250.2 95.3C278 90 306 81 333.8 79.7C361.7 78.3 389.3 84.7 417.2 92.2C445 99.7 473 108.3 500.8 110.2C528.7 112 556.3 107 584.2 106.8C612 106.7 640 111.3 667.8 107C695.7 102.7 723.3 89.3 751.2 90.7C779 92 807 108 834.8 114.2C862.7 120.3 890.3 116.7 918.2 108.5C946 100.3 974 87.7 1001.8 80.8C1029.7 74 1057.3 73 1085.2 75.2C1113 77.3 1141 82.7 1168.8 83.7C1196.7 84.7 1224.3 81.3 1252.2 88.2C1280 95 1308 112 1335.8 116.7C1363.7 121.3 1391.3 113.7 1419.2 108C1447 102.3 1475 98.7 1502.8 96C1530.7 93.3 1558.3 91.7 1586.2 93.2C1614 94.7 1642 99.3 1669.8 99.5C1697.7 99.7 1725.3 95.3 1753.2 94C1781 92.7 1809 94.3 1836.8 98.3C1864.7 102.3 1892.3 108.7 1906.2 111.8L1920 115L1920 201L1906.2 201C1892.3 201 1864.7 201 1836.8 201C1809 201 1781 201 1753.2 201C1725.3 201 1697.7 201 1669.8 201C1642 201 1614 201 1586.2 201C1558.3 201 1530.7 201 1502.8 201C1475 201 1447 201 1419.2 201C1391.3 201 1363.7 201 1335.8 201C1308 201 1280 201 1252.2 201C1224.3 201 1196.7 201 1168.8 201C1141 201 1113 201 1085.2 201C1057.3 201 1029.7 201 1001.8 201C974 201 946 201 918.2 201C890.3 201 862.7 201 834.8 201C807 201 779 201 751.2 201C723.3 201 695.7 201 667.8 201C640 201 612 201 584.2 201C556.3 201 528.7 201 500.8 201C473 201 445 201 417.2 201C389.3 201 361.7 201 333.8 201C306 201 278 201 250.2 201C222.3 201 194.7 201 166.8 201C139 201 111 201 83.2 201C55.3 201 27.7 201 13.8 201L0 201Z" fill="#004343"></path><path d="M0 137L13.8 136.5C27.7 136 55.3 135 83.2 136.8C111 138.7 139 143.3 166.8 145.3C194.7 147.3 222.3 146.7 250.2 149.8C278 153 306 160 333.8 160.7C361.7 161.3 389.3 155.7 417.2 147.8C445 140 473 130 500.8 131.2C528.7 132.3 556.3 144.7 584.2 153.7C612 162.7 640 168.3 667.8 171C695.7 173.7 723.3 173.3 751.2 170.2C779 167 807 161 834.8 153.3C862.7 145.7 890.3 136.3 918.2 131.2C946 126 974 125 1001.8 131C1029.7 137 1057.3 150 1085.2 150.2C1113 150.3 1141 137.7 1168.8 140.2C1196.7 142.7 1224.3 160.3 1252.2 161.8C1280 163.3 1308 148.7 1335.8 144.3C1363.7 140 1391.3 146 1419.2 145.5C1447 145 1475 138 1502.8 136.8C1530.7 135.7 1558.3 140.3 1586.2 139C1614 137.7 1642 130.3 1669.8 130.5C1697.7 130.7 1725.3 138.3 1753.2 144.8C1781 151.3 1809 156.7 1836.8 156C1864.7 155.3 1892.3 148.7 1906.2 145.3L1920 142L1920 201L1906.2 201C1892.3 201 1864.7 201 1836.8 201C1809 201 1781 201 1753.2 201C1725.3 201 1697.7 201 1669.8 201C1642 201 1614 201 1586.2 201C1558.3 201 1530.7 201 1502.8 201C1475 201 1447 201 1419.2 201C1391.3 201 1363.7 201 1335.8 201C1308 201 1280 201 1252.2 201C1224.3 201 1196.7 201 1168.8 201C1141 201 1113 201 1085.2 201C1057.3 201 1029.7 201 1001.8 201C974 201 946 201 918.2 201C890.3 201 862.7 201 834.8 201C807 201 779 201 751.2 201C723.3 201 695.7 201 667.8 201C640 201 612 201 584.2 201C556.3 201 528.7 201 500.8 201C473 201 445 201 417.2 201C389.3 201 361.7 201 333.8 201C306 201 278 201 250.2 201C222.3 201 194.7 201 166.8 201C139 201 111 201 83.2 201C55.3 201 27.7 201 13.8 201L0 201Z" fill="#0b3317"></path></svg>