<svg id="visual" viewBox="0 0 1920 200" width="1920" height="200" xmlns="http://www.w3.org/2000/svg" xmlns:xlink="http://www.w3.org/1999/xlink" version="1.1"><rect x="0" y="0" width="1920" height="200" fill="#ECF0F1"></rect><path d="M0 133L13.8 129.8C27.7 126.7 55.3 120.3 83.2 121.2C111 122 139 130 166.8 131.8C194.7 133.7 222.3 129.3 250.2 128C278 126.7 306 128.3 333.8 132.2C361.7 136 389.3 142 417.2 145.3C445 148.7 473 149.3 500.8 149.5C528.7 149.7 556.3 149.3 584.2 149.7C612 150 640 151 667.8 149C695.7 147 723.3 142 751.2 142C779 142 807 147 834.8 148C862.7 149 890.3 146 918.2 140.3C946 134.7 974 126.3 1001.8 131.2C1029.7 136 1057.3 154 1085.2 156.8C1113 159.7 1141 147.3 1168.8 144.8C1196.7 142.3 1224.3 149.7 1252.2 152.2C1280 154.7 1308 152.3 1335.8 151.5C1363.7 150.7 1391.3 151.3 1419.2 153C1447 154.7 1475 157.3 1502.8 152.3C1530.7 147.3 1558.3 134.7 1586.2 132C1614 129.3 1642 136.7 1669.8 140C1697.7 143.3 1725.3 142.7 1753.2 144.7C1781 146.7 1809 151.3 1836.8 153.8C1864.7 156.3 1892.3 156.7 1906.2 156.8L1920 157L1920 0L1906.2 0C1892.3 0 1864.7 0 1836.8 0C1809 0 1781 0 1753.2 0C1725.3 0 1697.7 0 1669.8 0C1642 0 1614 0 1586.2 0C1558.3 0 1530.7 0 1502.8 0C1475 0 1447 0 1419.2 0C1391.3 0 1363.7 0 1335.8 0C1308 0 1280 0 1252.2 0C1224.3 0 1196.7 0 1168.8 0C1141 0 1113 0 1085.2 0C1057.3 0 1029.7 0 1001.8 0C974 0 946 0 918.2 0C890.3 0 862.7 0 834.8 0C807 0 779 0 751.2 0C723.3 0 695.7 0 667.8 0C640 0 612 0 584.2 0C556.3 0 528.7 0 500.8 0C473 0 445 0 417.2 0C389.3 0 361.7 0 333.8 0C306 0 278 0 250.2 0C222.3 0 194.7 0 166.8 0C139 0 111 0 83.2 0C55.3 0 27.7 0 13.8 0L0 0Z" fill="#bdc3c7"></path><path d="M0 109L13.8 108.7C27.7 108.3 55.3 107.7 83.2 107C111 106.3 139 105.7 166.8 102.5C194.7 99.3 222.3 93.7 250.2 94.3C278 95 306 102 333.8 107.8C361.7 113.7 389.3 118.3 417.2 118.5C445 118.7 473 114.3 500.8 111.7C528.7 109 556.3 108 584.2 102.2C612 96.3 640 85.7 667.8 81.8C695.7 78 723.3 81 751.2 84.5C779 88 807 92 834.8 91.8C862.7 91.7 890.3 87.3 918.2 84.5C946 81.7 974 80.3 1001.8 84.5C1029.7 88.7 1057.3 98.3 1085.2 97.2C1113 96 1141 84 1168.8 80.2C1196.7 76.3 1224.3 80.7 1252.2 79.8C1280 79 1308 73 1335.8 74.2C1363.7 75.3 1391.3 83.7 1419.2 84.2C1447 84.7 1475 77.3 1502.8 75.2C1530.7 73 1558.3 76 1586.2 82.2C1614 88.3 1642 97.7 1669.8 97.2C1697.7 96.7 1725.3 86.3 1753.2 80.7C1781 75 1809 74 1836.8 76.5C1864.7 79 1892.3 85 1906.2 88L1920 91L1920 0L1906.2 0C1892.3 0 1864.7 0 1836.8 0C1809 0 1781 0 1753.2 0C1725.3 0 1697.7 0 1669.8 0C1642 0 1614 0 1586.2 0C1558.3 0 1530.7 0 1502.8 0C1475 0 1447 0 1419.2 0C1391.3 0 1363.7 0 1335.8 0C1308 0 1280 0 1252.2 0C1224.3 0 1196.7 0 1168.8 0C1141 0 1113 0 1085.2 0C1057.3 0 1029.7 0 1001.8 0C974 0 946 0 918.2 0C890.3 0 862.7 0 834.8 0C807 0 779 0 751.2 0C723.3 0 695.7 0 667.8 0C640 0 612 0 584.2 0C556.3 0 528.7 0 500.8 0C473 0 445 0 417.2 0C389.3 0 361.7 0 333.8 0C306 0 278 0 250.2 0C222.3 0 194.7 0 166.8 0C139 0 111 0 83.2 0C55.3 0 27.7 0 13.8 0L0 0Z" fill="#537978"></path><path d="M0 72L13.8 69.3C27.7 66.7 55.3 61.3 83.2 52.7C111 44 139 32 166.8 30.8C194.7 29.7 222.3 39.3 250.2 42.3C278 45.3 306 41.7 333.8 42.7C361.7 43.7 389.3 49.3 417.2 46.2C445 43 473 31 500.8 25.7C528.7 20.3 556.3 21.7 584.2 31.5C612 41.3 640 59.7 667.8 61C695.7 62.3 723.3 46.7 751.2 38.7C779 30.7 807 30.3 834.8 29.5C862.7 28.7 890.3 27.3 918.2 31.5C946 35.7 974 45.3 1001.8 52.2C1029.7 59 1057.3 63 1085.2 57.7C1113 52.3 1141 37.7 1168.8 30.7C1196.7 23.7 1224.3 24.3 1252.2 28.7C1280 33 1308 41 1335.8 45.7C1363.7 50.3 1391.3 51.7 1419.2 48.7C1447 45.7 1475 38.3 1502.8 33C1530.7 27.7 1558.3 24.3 1586.2 31.8C1614 39.3 1642 57.7 1669.8 62.2C1697.7 66.7 1725.3 57.3 1753.2 52C1781 46.7 1809 45.3 1836.8 47C1864.7 48.7 1892.3 53.3 1906.2 55.7L1920 58L1920 0L1906.2 0C1892.3 0 1864.7 0 1836.8 0C1809 0 1781 0 1753.2 0C1725.3 0 1697.7 0 1669.8 0C1642 0 1614 0 1586.2 0C1558.3 0 1530.7 0 1502.8 0C1475 0 1447 0 1419.2 0C1391.3 0 1363.7 0 1335.8 0C1308 0 1280 0 1252.2 0C1224.3 0 1196.7 0 1168.8 0C1141 0 1113 0 1085.2 0C1057.3 0 1029.7 0 1001.8 0C974 0 946 0 918.2 0C890.3 0 862.7 0 834.8 0C807 0 779 0 751.2 0C723.3 0 695.7 0 667.8 0C640 0 612 0 584.2 0C556.3 0 528.7 0 500.8 0C473 0 445 0 417.2 0C389.3 0 361.7 0 333.8 0C306 0 278 0 250.2 0C222.3 0 194.7 0 166.8 0C139 0 111 0 83.2 0C55.3 0 27.7 0 13.8 0L0 0Z" fill="#0b3317"></path></svg>