<svg id="visual" viewBox="0 0 1920 1080" width="1920" height="1080" xmlns="http://www.w3.org/2000/svg" xmlns:xlink="http://www.w3.org/1999/xlink" version="1.1"><rect width="1920" height="1080" fill="#001829"></rect><g><g transform="translate(1307 51)"><path d="M0 -179.7L115.5 -137.6L176.9 -31.2L155.6 89.8L61.5 168.8L-61.5 168.8L-155.6 89.8L-176.9 -31.2L-115.5 -137.6Z" stroke="#297EA6" fill="none" stroke-width="2"></path></g><g transform="translate(414 461)"><path d="M0 -65L41.8 -49.8L64 -11.3L56.3 32.5L22.2 61.1L-22.2 61.1L-56.3 32.5L-64 -11.3L-41.8 -49.8Z" stroke="#297EA6" fill="none" stroke-width="2"></path></g><g transform="translate(1483 650)"><path d="M0 -139L89.3 -106.5L136.9 -24.1L120.4 69.5L47.5 130.6L-47.5 130.6L-120.4 69.5L-136.9 -24.1L-89.3 -106.5Z" stroke="#297EA6" fill="none" stroke-width="2"></path></g><g transform="translate(32 365)"><path d="M0 -126L81 -96.5L124.1 -21.9L109.1 63L43.1 118.4L-43.1 118.4L-109.1 63L-124.1 -21.9L-81 -96.5Z" stroke="#297EA6" fill="none" stroke-width="2"></path></g><g transform="translate(619 164)"><path d="M0 -154L99 -118L151.7 -26.7L133.4 77L52.7 144.7L-52.7 144.7L-133.4 77L-151.7 -26.7L-99 -118Z" stroke="#297EA6" fill="none" stroke-width="2"></path></g><g transform="translate(687 872)"><path d="M0 -168L108 -128.7L165.4 -29.2L145.5 84L57.5 157.9L-57.5 157.9L-145.5 84L-165.4 -29.2L-108 -128.7Z" stroke="#297EA6" fill="none" stroke-width="2"></path></g><g transform="translate(1912 38)"><path d="M0 -141L90.6 -108L138.9 -24.5L122.1 70.5L48.2 132.5L-48.2 132.5L-122.1 70.5L-138.9 -24.5L-90.6 -108Z" stroke="#297EA6" fill="none" stroke-width="2"></path></g><g transform="translate(133 920)"><path d="M0 -57L36.6 -43.7L56.1 -9.9L49.4 28.5L19.5 53.6L-19.5 53.6L-49.4 28.5L-56.1 -9.9L-36.6 -43.7Z" stroke="#297EA6" fill="none" stroke-width="2"></path></g><g transform="translate(1071 656)"><path d="M0 -69L44.4 -52.9L68 -12L59.8 34.5L23.6 64.8L-23.6 64.8L-59.8 34.5L-68 -12L-44.4 -52.9Z" stroke="#297EA6" fill="none" stroke-width="2"></path></g><g transform="translate(1897 1025)"><path d="M0 -37L23.8 -28.3L36.4 -6.4L32 18.5L12.7 34.8L-12.7 34.8L-32 18.5L-36.4 -6.4L-23.8 -28.3Z" stroke="#297EA6" fill="none" stroke-width="2"></path></g><g transform="translate(1230 981)"><path d="M0 -70L45 -53.6L68.9 -12.2L60.6 35L23.9 65.8L-23.9 65.8L-60.6 35L-68.9 -12.2L-45 -53.6Z" stroke="#297EA6" fill="none" stroke-width="2"></path></g><g transform="translate(1871 479)"><path d="M0 -148L95.1 -113.4L145.8 -25.7L128.2 74L50.6 139.1L-50.6 139.1L-128.2 74L-145.8 -25.7L-95.1 -113.4Z" stroke="#297EA6" fill="none" stroke-width="2"></path></g><g transform="translate(15 4)"><path d="M0 -162L104.1 -124.1L159.5 -28.1L140.3 81L55.4 152.2L-55.4 152.2L-140.3 81L-159.5 -28.1L-104.1 -124.1Z" stroke="#297EA6" fill="none" stroke-width="2"></path></g></g></svg>