<svg id="visual" viewBox="0 0 1920 200" width="1920" height="200" xmlns="http://www.w3.org/2000/svg" xmlns:xlink="http://www.w3.org/1999/xlink" version="1.1"><rect x="0" y="0" width="1920" height="200" fill="#001829"></rect><path d="M0 62L10.7 70.8C21.3 79.7 42.7 97.3 64 106.2C85.3 115 106.7 115 128 114.5C149.3 114 170.7 113 192 105.5C213.3 98 234.7 84 256 81.3C277.3 78.7 298.7 87.3 320 90.5C341.3 93.7 362.7 91.3 384 89.8C405.3 88.3 426.7 87.7 448 83.5C469.3 79.3 490.7 71.7 512 68.3C533.3 65 554.7 66 576 72.3C597.3 78.7 618.7 90.3 640 100.8C661.3 111.3 682.7 120.7 704 124.2C725.3 127.7 746.7 125.3 768 124.7C789.3 124 810.7 125 832 124C853.3 123 874.7 120 896 110.5C917.3 101 938.7 85 960 88.3C981.3 91.7 1002.7 114.3 1024 122.3C1045.3 130.3 1066.7 123.7 1088 113.5C1109.3 103.3 1130.7 89.7 1152 82.8C1173.3 76 1194.7 76 1216 79.7C1237.3 83.3 1258.7 90.7 1280 99.3C1301.3 108 1322.7 118 1344 113.2C1365.3 108.3 1386.7 88.7 1408 88.8C1429.3 89 1450.7 109 1472 115.5C1493.3 122 1514.7 115 1536 111.2C1557.3 107.3 1578.7 106.7 1600 107.8C1621.3 109 1642.7 112 1664 109C1685.3 106 1706.7 97 1728 92.3C1749.3 87.7 1770.7 87.3 1792 91.3C1813.3 95.3 1834.7 103.7 1856 105.3C1877.3 107 1898.7 102 1909.3 99.5L1920 97L1920 201L1909.3 201C1898.7 201 1877.3 201 1856 201C1834.7 201 1813.3 201 1792 201C1770.7 201 1749.3 201 1728 201C1706.7 201 1685.3 201 1664 201C1642.7 201 1621.3 201 1600 201C1578.7 201 1557.3 201 1536 201C1514.7 201 1493.3 201 1472 201C1450.7 201 1429.3 201 1408 201C1386.7 201 1365.3 201 1344 201C1322.7 201 1301.3 201 1280 201C1258.7 201 1237.3 201 1216 201C1194.7 201 1173.3 201 1152 201C1130.7 201 1109.3 201 1088 201C1066.7 201 1045.3 201 1024 201C1002.7 201 981.3 201 960 201C938.7 201 917.3 201 896 201C874.7 201 853.3 201 832 201C810.7 201 789.3 201 768 201C746.7 201 725.3 201 704 201C682.7 201 661.3 201 640 201C618.7 201 597.3 201 576 201C554.7 201 533.3 201 512 201C490.7 201 469.3 201 448 201C426.7 201 405.3 201 384 201C362.7 201 341.3 201 320 201C298.7 201 277.3 201 256 201C234.7 201 213.3 201 192 201C170.7 201 149.3 201 128 201C106.7 201 85.3 201 64 201C42.7 201 21.3 201 10.7 201L0 201Z" fill="#0B3317" stroke-linecap="round" stroke-linejoin="miter"></path></svg>